<svg xmlns="http://www.w3.org/2000/svg" width="1280" height="720" viewBox="0 0 1280 720">
  <rect width="1280" height="720" fill="#f8fafc"/>
  <rect x="64" y="56" width="1152" height="608" rx="18" fill="#ffffff" stroke="#cbd5e1"/>
  <rect x="64" y="56" width="1152" height="86" rx="18" fill="#0f172a"/>
  <text x="104" y="108" fill="#ffffff" font-family="Arial, sans-serif" font-size="30" font-weight="700">Supply Chain Evidence Review Simple RAG</text>
  <text x="104" y="184" fill="#0f766e" font-family="Arial, sans-serif" font-size="18" font-weight="700">Simple RAG</text>
  <text x="104" y="218" fill="#475569" font-family="Arial, sans-serif" font-size="22">Supply Chain Evidence Review Simple RAG - Beginner Custom 8</text>
  <rect x="104" y="266" width="420" height="292" rx="12" fill="#f1f5f9" stroke="#cbd5e1"/>
  <text x="136" y="314" fill="#0f172a" font-family="Arial, sans-serif" font-size="22" font-weight="700">Ask Panel</text>
  <rect x="136" y="344" width="336" height="118" rx="8" fill="#ffffff" stroke="#cbd5e1"/>
  <text x="154" y="390" fill="#64748b" font-family="Arial, sans-serif" font-size="18">User question / task details</text>
  <rect x="136" y="486" width="180" height="44" rx="8" fill="#0f766e"/>
  <text x="166" y="515" fill="#ffffff" font-family="Arial, sans-serif" font-size="18" font-weight="700">Run pipeline</text>
  <rect x="568" y="266" width="608" height="292" rx="12" fill="#ffffff" stroke="#cbd5e1"/>
  <text x="600" y="314" fill="#0f172a" font-family="Arial, sans-serif" font-size="22" font-weight="700">Answer + Sources + Timeline</text>
  <rect x="600" y="344" width="520" height="34" rx="7" fill="#ecfdf5"/>
  <rect x="600" y="394" width="470" height="24" rx="6" fill="#e2e8f0"/>
  <rect x="600" y="432" width="500" height="24" rx="6" fill="#e2e8f0"/>
  <rect x="600" y="470" width="380" height="24" rx="6" fill="#e2e8f0"/>
  <text x="104" y="616" fill="#64748b" font-family="Arial, sans-serif" font-size="18">Generated portfolio proof: runnable app, tests, Docker, README, architecture, deployment guide.</text>
</svg>